<mxfile host="app.diagrams.net" modified="2024-04-09T13:06:36.116Z" agent="Mozilla/5.0 (Windows NT 10.0; Win64; x64) AppleWebKit/537.36 (KHTML, like Gecko) Chrome/123.0.0.0 Safari/537.36" version="24.2.1" etag="4EgYp7cjv6XWvA19PT_H" type="github">
  <diagram name="第 1 页" id="qLS_Zn4WvnMbw0IKk3QI">
    <mxGraphModel>
      <root>
        <mxCell id="0" />
        <mxCell id="1" parent="0" />
      </root>
    </mxGraphModel>
  </diagram>
</mxfile>
